# xmcd
#
# Track frame offsets: 
#        150
#        21631
#        37587
#        48585
#        77255
#        90783
#        109006
#        126370
#        144396
#        163189
#        189372
#
# Disc length: 2808 seconds
#
# Revision: 0
# Processed by: cddbd v1.5.2PL0 Copyright (c) Steve Scherf et al.
# Submitted via: ExactAudioCopy v0.99pb1
#
DISCID=800af60b
DTITLE=Krakowska Grupa Bluesowa - Pomysl dobrze
DYEAR=2007
DGENRE=Blues
TTITLE0=KOCHANIE STOP
TTITLE1=BAR
TTITLE2=PIES PRZEZNACZENIA
TTITLE3=PARK
TTITLE4=ZAPOMNIANA DZIEWCZYNA
TTITLE5=BLUES O OSTATNIM POCIAGU I ZAMKNIETEJ LINII KOLEJOWEJ
TTITLE6=POMYSL DOBRZE
TTITLE7=JAK ZWAL TAK ZWAL
TTITLE8=KOBIETA WAZ
TTITLE9=LEPIEJ NIE MOW NIC
TTITLE10=JAK ALBERT COLINS
EXTD=
EXTT0=
EXTT1=
EXTT2=
EXTT3=
EXTT4=
EXTT5=
EXTT6=
EXTT7=
EXTT8=
EXTT9=
EXTT10=
PLAYORDER=
